<svg width="151" height="79" viewBox="0 0 151 79" fill="none" xmlns="http://www.w3.org/2000/svg">
<path fill-rule="evenodd" clip-rule="evenodd" d="M59.6571 8.86256L78.3839 18.226C79.3328 18.7005 79.3328 20.0547 78.3839 20.5292L59.6571 29.8926L42.2071 38.6176C41.351 39.0456 40.3438 38.4231 40.3438 37.466V19.3776V1.28922C40.3438 0.332072 41.351 -0.290456 42.2071 0.137592L59.6571 8.86256Z" fill="white"/>
<path d="M40.1289 58.2188C40.1289 58.9299 40.7054 59.5063 41.4165 59.5063H75.0181C76.3768 59.5063 76.8091 57.6748 75.5939 57.0672L59.4422 48.9913L41.9923 40.2664C41.1362 39.8383 40.1289 40.4608 40.1289 41.418V58.2188Z" fill="white"/>
<path d="M40.3438 20.665C40.3438 19.9539 39.7673 19.3774 39.0562 19.3774H5.45456C4.0959 19.3774 3.66354 21.209 4.87875 21.8166L21.0304 29.8925L38.4804 38.6174C39.3365 39.0455 40.3438 38.423 40.3438 37.4658V20.665Z" fill="white"/>
<path fill-rule="evenodd" clip-rule="evenodd" d="M40.3433 41.4074C40.3433 40.4528 39.3409 39.8301 38.4852 40.2531L21.6737 48.5622L2.28727 58.3514C1.34226 58.8286 1.34493 60.1789 2.29182 60.6524L21.03 70.0214L38.4799 78.7464C39.336 79.1745 40.3433 78.5519 40.3433 77.5948V59.5064V41.4074Z" fill="white"/>
<path d="M63.4908 40.0688C63.4118 40.9375 63.1058 41.6383 62.553 42.1517C62.0002 42.665 61.3092 42.9216 60.4702 42.9216C59.4929 42.9216 58.7131 42.5959 58.1307 41.9246C57.5384 41.2632 57.2522 40.3748 57.2522 39.2594C57.2522 38.2229 57.5384 37.3444 58.1208 36.6336C58.7032 35.9229 59.5028 35.5675 60.5294 35.5675C61.2401 35.5675 61.8719 35.7847 62.4346 36.1993C62.9972 36.6139 63.323 37.1667 63.402 37.8478H62.7307C62.6221 37.3345 62.3655 36.9199 61.9706 36.6139C61.5659 36.3079 61.0822 36.1499 60.5097 36.1499C59.7298 36.1499 59.0981 36.4362 58.6243 37.0087C58.1504 37.5813 57.9135 38.3315 57.9135 39.2594C57.9135 40.1971 58.1406 40.9474 58.6144 41.51C59.0882 42.0727 59.7101 42.3491 60.4899 42.3491C61.1612 42.3491 61.7041 42.1418 62.1088 41.7272C62.5037 41.3126 62.7504 40.7598 62.8294 40.0688H63.4908Z" fill="white"/>
<path d="M71.5198 35.7156L74.3232 42.7637H73.5829L72.734 40.5525H69.5159L68.6572 42.7637H67.9365L70.7795 35.7156H71.5198ZM72.5267 40.0096L71.1447 36.3474L69.7232 40.0096H72.5267Z" fill="white"/>
<path d="M82.356 35.7353V40.8585C82.356 42.2405 81.6946 42.9216 80.3718 42.9216C79.6611 42.9216 79.1379 42.7439 78.8221 42.3787C78.5062 42.0233 78.3482 41.4804 78.3482 40.7697C78.3482 40.6808 78.3482 40.592 78.3581 40.4933H78.9997V40.7006C78.9997 41.2632 79.0886 41.6778 79.2761 41.9542C79.4637 42.2306 79.8289 42.3688 80.3718 42.3688C80.895 42.3688 81.2504 42.2306 81.4281 41.9345C81.6057 41.6482 81.6946 41.2336 81.6946 40.6808V35.7353H82.356Z" fill="white"/>
<path d="M90.6194 35.7156L93.4229 42.7637H92.6825L91.8336 40.5525H88.6156L87.7568 42.7637H87.0362L89.8791 35.7156H90.6194ZM91.6263 40.0096L90.2443 36.3474L88.8229 40.0096H91.6263Z" fill="white"/>
<path d="M97.8328 42.5493V35.521H99.6689L102.206 39.9631L102.127 35.521H103.904V42.5493H102.117L99.5504 38.0382L99.5998 42.5493H97.8328Z" fill="white"/>
<path d="M115.272 35.521V37.0017H111.472V38.2158H114.946V39.6373H111.472V41.0094H115.361V42.5493H109.645V35.521H115.272Z" fill="white"/>
<path d="M126.889 38.7193V42.5592H125.714L125.606 41.7991C125.29 42.1446 124.964 42.3815 124.648 42.5098C124.332 42.648 123.928 42.7073 123.434 42.7073C122.437 42.7073 121.637 42.3815 121.035 41.7201C120.423 41.0686 120.127 40.2 120.127 39.1141C120.127 37.9888 120.453 37.0905 121.104 36.3995C121.756 35.7085 122.615 35.3631 123.691 35.3631C124.549 35.3631 125.26 35.5901 125.813 36.0244C126.366 36.4686 126.692 37.1004 126.79 37.9197H125.013C124.816 37.2485 124.372 36.9227 123.661 36.9227C123.266 36.9227 122.931 37.0214 122.674 37.2386C122.417 37.4558 122.24 37.7124 122.141 38.0283C122.042 38.3343 121.993 38.6798 121.993 39.0648C121.993 39.7163 122.131 40.2493 122.407 40.6442C122.684 41.0489 123.138 41.2463 123.76 41.2463C124.184 41.2463 124.51 41.1575 124.727 40.96C124.944 40.7626 125.112 40.4566 125.211 40.042H123.937V38.7193H126.889Z" fill="white"/>
<path d="M132.157 42.5493V35.521H135.819C136.51 35.521 137.083 35.6987 137.527 36.0442C137.971 36.3897 138.198 36.8931 138.198 37.5545C138.198 38.3738 137.833 38.9463 137.112 39.2721C137.576 39.43 137.872 39.736 138.001 40.1802C138.08 40.4764 138.159 40.9699 138.218 41.6708C138.218 41.6905 138.218 41.7399 138.228 41.809C138.228 41.8781 138.238 41.9274 138.238 41.9472C138.238 41.9768 138.247 42.0163 138.257 42.0755C138.257 42.1347 138.267 42.1742 138.277 42.2038C138.287 42.2334 138.297 42.2729 138.317 42.3124C138.326 42.3618 138.346 42.4012 138.366 42.4407C138.386 42.4802 138.415 42.5098 138.445 42.5493H136.579C136.52 42.4309 136.481 42.2828 136.461 42.1249C136.431 41.9669 136.411 41.7695 136.402 41.5326C136.382 41.3055 136.372 41.1575 136.372 41.0785C136.323 40.6639 136.204 40.3678 136.026 40.1901C135.839 40.0223 135.533 39.9334 135.118 39.9334H133.993V42.5493H132.157ZM133.993 38.6304H135.286C135.632 38.6304 135.898 38.5712 136.096 38.4527C136.293 38.3343 136.392 38.1073 136.392 37.7618C136.392 37.2188 136.017 36.9424 135.266 36.9424H133.993V38.6304Z" fill="white"/>
<path d="M147.535 35.5111L150.161 42.5493H148.266L147.812 41.2661H145.383L144.92 42.5493H143.044L145.68 35.5111H147.535ZM147.397 39.9433L146.607 37.4854L145.798 39.9433H147.397Z" fill="white"/>
</svg>
